<svg xmlns="http://www.w3.org/2000/svg" width="32" height="32" fill="#ffffff" viewBox="0 0 256 256">
  <path d="M208,96H179.77L165.85,55.54A24,24,0,0,0,119.86,66.15L128,83.92l8.14-17.77a24,24,0,0,0-45.99-10.61L76.23,96H48A16,16,0,0,0,32,112v32a8,8,0,0,0,8,8H48v48a16,16,0,0,0,16,16H192a16,16,0,0,0,16-16V152h8a8,8,0,0,0,8-8V112A16,16,0,0,0,208,96ZM144,83.72,151.62,68.3A8,8,0,1,1,166.74,76L151.62,115.52H144ZM104.26,76a8,8,0,0,1,15.12-6.74L128,83.72v31.8H104.38ZM48,112H80v24H48ZM64,200V152H120v48Zm128,0H136V152h56Zm16-64H176V112h32Z"></path>
</svg>